<?xml version="1.0" standalone="no"?>
<!DOCTYPE svg PUBLIC "-//W3C//DTD SVG 20010904//EN"
 "http://www.w3.org/TR/2001/REC-SVG-20010904/DTD/svg10.dtd">
<svg version="1.0" xmlns="http://www.w3.org/2000/svg"
 width="500.000000pt" height="500.000000pt" viewBox="0 0 500.000000 500.000000"
 preserveAspectRatio="xMidYMid meet">
<metadata>
Created by potrace 1.14, written by Peter Selinger 2001-2017
</metadata>
<g transform="translate(0.000000,500.000000) scale(0.100000,-0.100000)"
fill="#000000" stroke="none">
<path d="M2673 4284 c-70 -35 -67 -11 -73 -592 l-5 -522 -59 44 c-202 151
-510 216 -806 171 -391 -59 -708 -342 -806 -718 -37 -141 -45 -224 -51 -522
-8 -437 12 -631 87 -836 144 -398 541 -630 1035 -606 260 13 459 99 618 265
l57 61 0 -82 c0 -96 17 -140 69 -174 l34 -23 454 0 c504 0 503 0 543 65 20 32
20 45 20 1711 0 1625 -1 1680 -19 1710 -39 64 -37 64 -578 64 -424 0 -492 -3
-520 -16z m-193 -1812 c47 -24 59 -36 85 -86 l30 -60 0 -265 c0 -229 -2 -273
-18 -317 -34 -97 -113 -147 -234 -147 -89 1 -152 28 -193 85 -46 63 -52 116
-48 398 3 251 3 256 29 305 60 117 211 155 349 87z"/>
</g>
</svg>
